<svg width="103" height="32" viewBox="0 0 103 32" fill="none" xmlns="http://www.w3.org/2000/svg">
<g clip-path="url(#clip0_1_243)">
<path d="M29.5261 22.679C29.3645 22.289 29.2131 21.879 29.0515 21.529L28.3042 19.859L28.2739 19.829C26.0524 15.029 23.6793 10.149 21.1649 5.34897L21.0639 5.14897C20.8115 4.67897 20.559 4.15897 20.2965 3.67897C19.9734 3.10897 19.6603 2.49897 19.1453 1.91897C18.6433 1.3121 18.0115 0.823156 17.2956 0.487423C16.5796 0.151689 15.7973 -0.0224609 15.0051 -0.0224609C14.2129 -0.0224609 13.4306 0.151689 12.7147 0.487423C11.9987 0.823156 11.3669 1.3121 10.8649 1.91897C10.3903 2.49897 10.0369 3.10897 9.71374 3.67897C9.46129 4.19897 9.20884 4.70897 8.94629 5.17897L8.84531 5.37897C6.37129 10.179 3.95786 15.059 1.73629 19.859L1.6757 19.919C1.45355 20.439 1.191 20.979 0.938547 21.559C0.776979 21.909 0.61541 22.289 0.453841 22.709C0.017639 23.8088 -0.121654 25.0021 0.0496898 26.1715C0.221034 27.3408 0.697101 28.4457 1.43097 29.3774C2.16484 30.309 3.13119 31.0352 4.23477 31.4844C5.33836 31.9336 6.54109 32.0903 7.72443 31.939C8.85891 31.7911 9.95132 31.4169 10.9356 30.839C12.2484 30.109 13.5106 29.049 14.9243 27.519C16.3381 29.049 17.6306 30.109 18.9131 30.849C20.1463 31.5658 21.5429 31.9615 22.9725 31.999C24.6279 32.0058 26.2299 31.4193 27.4827 30.3477C28.7356 29.2761 29.5546 27.7919 29.7886 26.169C30.0591 25.0027 29.9676 23.7828 29.5261 22.669V22.679ZM15.0253 24.339C13.2884 22.139 12.1575 20.119 11.7737 18.389C11.6148 17.7479 11.5805 17.0827 11.6728 16.429C11.7434 15.919 11.9353 15.469 12.1979 15.089C12.8037 14.219 13.864 13.679 15.0253 13.679C15.5768 13.6623 16.1238 13.7815 16.6173 14.0258C17.1108 14.2702 17.5353 14.632 17.8528 15.079C18.1153 15.479 18.3072 15.919 18.3678 16.429C18.4687 17.009 18.4284 17.679 18.2668 18.389C17.8831 20.089 16.7521 22.129 15.0253 24.339ZM27.8902 25.819C27.7755 26.6429 27.4447 27.4227 26.9309 28.0807C26.4171 28.7386 25.7382 29.2518 24.9618 29.569C24.1943 29.889 23.3461 29.979 22.5181 29.889C21.7102 29.789 20.9024 29.529 20.0743 29.049C18.6995 28.2075 17.4632 27.162 16.4087 25.949C18.5293 23.349 19.8118 20.979 20.2965 18.869C20.5287 17.869 20.559 16.969 20.4581 16.139C20.332 15.3523 20.0357 14.6018 19.5896 13.939C19.0803 13.2202 18.4004 12.6364 17.6098 12.2389C16.8192 11.8413 15.9421 11.6422 15.0556 11.659C13.1875 11.659 11.5213 12.519 10.5115 13.929C10.0569 14.5901 9.76313 15.3466 9.65316 16.139C9.52188 16.979 9.55217 17.909 9.81472 18.869C10.2994 20.979 11.6122 23.379 13.7025 25.969C12.6659 27.2051 11.4267 28.2598 10.0369 29.089C9.19874 29.569 8.401 29.819 7.59315 29.919C6.33684 30.0783 5.06779 29.7402 4.06183 28.9781C3.05588 28.216 2.39433 27.0914 2.221 25.849C2.12002 25.049 2.1907 24.249 2.51384 23.349C2.61482 23.029 2.76629 22.709 2.92786 22.329C3.15002 21.809 3.41257 21.269 3.66502 20.729L3.70541 20.659C5.88659 15.889 8.26972 11.019 10.7437 6.24897L10.8447 6.04897C11.0972 5.56897 11.3496 5.05897 11.6122 4.57897C11.8747 4.06897 12.1575 3.57897 12.521 3.17897C12.8357 2.80699 13.2289 2.50784 13.6729 2.30258C14.1169 2.09733 14.6009 1.99096 15.0909 1.99096C15.581 1.99096 16.065 2.09733 16.509 2.30258C16.953 2.50784 17.3462 2.80699 17.6609 3.17897C18.0143 3.57897 18.3072 4.06897 18.5697 4.57897C18.8222 5.05897 19.0746 5.57897 19.3372 6.04897L19.4382 6.24897C21.9021 11.019 24.2852 15.889 26.5068 20.659L26.5371 20.689C26.7996 21.209 27.0218 21.789 27.2742 22.289C27.4358 22.679 27.5974 22.989 27.6984 23.319C27.8902 24.219 27.9912 25.019 27.8902 25.819ZM41.9467 24.119C41.1858 24.13 40.4321 23.9712 39.7416 23.6544C39.0511 23.3376 38.4415 22.8709 37.958 22.289C36.8715 21.0489 36.2948 19.45 36.3423 17.809C36.3256 16.1322 36.9209 14.5058 38.0185 13.229C38.5263 12.6396 39.1583 12.1676 39.8701 11.8462C40.582 11.5249 41.3563 11.362 42.1385 11.369C42.8746 11.349 43.6037 11.5148 44.2573 11.8506C44.9109 12.1865 45.4675 12.6815 45.8748 13.289L45.9758 11.719H48.9244V23.799H45.9657L45.8647 22.039C45.4448 22.6876 44.8644 23.2192 44.1787 23.5833C43.493 23.9473 42.7246 24.1317 41.9467 24.119ZM42.7141 21.239C43.2998 21.239 43.8148 21.079 44.2995 20.789C44.7438 20.469 45.1074 20.049 45.3901 19.539C45.6426 19.029 45.7738 18.419 45.7738 17.739C45.8132 17.1484 45.6971 16.5578 45.4369 16.0249C45.1767 15.492 44.7813 15.0352 44.2894 14.699C43.8168 14.4073 43.271 14.2527 42.7141 14.2527C42.1572 14.2527 41.6115 14.4073 41.1388 14.699C40.6945 15.019 40.331 15.439 40.0483 15.949C39.7812 16.5114 39.6498 17.1276 39.6645 17.749C39.6252 18.3396 39.7412 18.9302 40.0014 19.463C40.2616 19.9959 40.657 20.4528 41.1489 20.789C41.6235 21.079 42.1385 21.239 42.7141 21.239ZM53.9734 8.45897C53.9734 8.80897 53.9129 9.12897 53.7513 9.38897C53.5897 9.63897 53.3676 9.86897 53.0747 10.029C52.7819 10.189 52.4688 10.249 52.1457 10.249C51.8226 10.249 51.4994 10.189 51.2066 10.029C50.9296 9.87628 50.6967 9.65596 50.53 9.38897C50.3736 9.1041 50.2969 8.78303 50.3079 8.45897C50.3079 8.09897 50.3785 7.77897 50.53 7.52897C50.6916 7.22897 50.9238 7.04897 51.2066 6.88897C51.4994 6.72897 51.8125 6.65897 52.1457 6.65897C52.4671 6.65163 52.785 6.72702 53.0682 6.87776C53.3514 7.0285 53.5902 7.24944 53.7614 7.51897C53.9083 7.81052 53.9811 8.13321 53.9734 8.45897ZM50.5401 23.759V11.699H53.7513V23.779H50.53L50.5401 23.759ZM62.3346 14.859V14.899C62.1832 14.829 61.9812 14.799 61.8297 14.769C61.6278 14.729 61.4662 14.729 61.2743 14.729C60.3756 14.729 59.699 14.989 59.2547 15.529C58.77 16.079 58.5479 16.849 58.5479 17.839V23.769H55.3266V11.689H58.2853L58.3863 13.519C58.7094 12.879 59.0932 12.399 59.6384 12.039C60.1808 11.6892 60.8194 11.5145 61.4662 11.539C61.6984 11.539 61.9206 11.559 62.1125 11.599C62.2134 11.629 62.274 11.629 62.3346 11.659V14.859ZM63.6272 23.759V6.73897H66.8384V13.239C67.2928 12.659 67.8078 12.209 68.454 11.859C69.4772 11.3622 70.6395 11.2213 71.7534 11.459C72.8673 11.6966 73.8679 12.299 74.5937 13.169C75.6825 14.4116 76.2593 16.0145 76.2093 17.659C76.226 19.3358 75.6307 20.9621 74.5331 22.239C74.0253 22.8283 73.3933 23.3003 72.6815 23.6217C71.9696 23.9431 71.1953 24.106 70.4131 24.099C69.677 24.1189 68.9479 23.9532 68.2943 23.6173C67.6407 23.2814 67.0841 22.7865 66.6768 22.179L66.5758 23.749L63.6272 23.779V23.759ZM69.8375 21.239C70.4131 21.239 70.9281 21.079 71.4128 20.789C71.8571 20.469 72.2206 20.049 72.5034 19.539C72.7659 19.029 72.8871 18.419 72.8871 17.739C72.8871 17.069 72.7659 16.459 72.5034 15.949C72.2382 15.4572 71.8656 15.0302 71.4128 14.699C70.9401 14.4073 70.3944 14.2527 69.8375 14.2527C69.2806 14.2527 68.7348 14.4073 68.2622 14.699C67.8078 15.019 67.4543 15.439 67.1615 15.949C66.8945 16.5114 66.7631 17.1276 66.7778 17.749C66.7384 18.3396 66.8545 18.9302 67.1147 19.463C67.3749 19.9959 67.7703 20.4528 68.2622 20.789C68.7368 21.079 69.2518 21.239 69.8375 21.239ZM77.4211 23.769V11.689H80.3798L80.4808 13.259C80.8526 12.6572 81.38 12.1646 82.0085 11.8324C82.637 11.5001 83.3437 11.3401 84.0555 11.369C84.8695 11.355 85.6696 11.5791 86.3557 12.0131C87.0418 12.4471 87.5835 13.0717 87.913 13.809C88.2664 14.569 88.4583 15.509 88.4583 16.559V23.799H85.237V16.979C85.237 16.139 85.0451 15.479 84.6614 14.989C84.2777 14.509 83.7526 14.249 83.0861 14.249C82.6014 14.249 82.1773 14.349 81.8036 14.569C81.4502 14.799 81.1574 15.089 80.9352 15.499C80.7106 15.9134 80.5992 16.3788 80.6121 16.849V23.769H77.4211ZM90.0638 23.769V6.72897H93.2851V13.229C93.7214 12.6457 94.289 12.1712 94.9429 11.8432C95.5967 11.5151 96.3187 11.3425 97.0517 11.339C97.8126 11.3279 98.5663 11.4867 99.2568 11.8035C99.9473 12.1203 100.557 12.587 101.04 13.169C102.122 14.4115 102.694 16.0095 102.646 17.649C102.664 19.3259 102.068 20.9526 100.97 22.229C100.462 22.8183 99.83 23.2903 99.1181 23.6117C98.4063 23.9331 97.632 24.096 96.8497 24.089C96.1136 24.1089 95.3845 23.9432 94.7309 23.6073C94.0773 23.2714 93.5207 22.7765 93.1134 22.169L93.0226 23.739L90.0638 23.769ZM96.3044 21.239C96.8901 21.239 97.4051 21.079 97.8797 20.789C98.3341 20.469 98.6876 20.049 98.9804 19.539C99.2329 19.029 99.3641 18.419 99.3641 17.739C99.4035 17.1484 99.2874 16.5578 99.0272 16.0249C98.767 15.492 98.3716 15.0352 97.8797 14.699C97.4071 14.4073 96.8613 14.2527 96.3044 14.2527C95.7475 14.2527 95.2018 14.4073 94.7291 14.699C94.2848 15.019 93.9213 15.439 93.6385 15.949C93.3567 16.5064 93.2245 17.1263 93.2548 17.749C93.2155 18.3396 93.3316 18.9302 93.5917 19.463C93.8519 19.9959 94.2473 20.4528 94.7392 20.789C95.2138 21.079 95.6985 21.239 96.3044 21.239Z" fill="#FF385C"/>
</g>
<defs>
<clipPath id="clip0_1_243">
<rect width="103" height="32" fill="white"/>
</clipPath>
</defs>
</svg>
