<svg width="95" height="32" viewBox="0 0 95 32" fill="none" xmlns="http://www.w3.org/2000/svg">
<g clip-path="url(#clip0_1_248)">
<path d="M40.427 16.4101C40.427 20.8518 36.9379 24.1249 32.6559 24.1249C28.3739 24.1249 24.8848 20.8518 24.8848 16.4101C24.8848 11.9371 28.3739 8.69531 32.6559 8.69531C36.9379 8.69531 40.427 11.9371 40.427 16.4101ZM37.0252 16.4101C37.0252 13.6344 35.003 11.7353 32.6559 11.7353C30.3088 11.7353 28.2866 13.6344 28.2866 16.4101C28.2866 19.1579 30.3088 21.0849 32.6559 21.0849C35.003 21.0849 37.0252 19.1544 37.0252 16.4101Z" fill="#EA4335"/>
<path d="M57.1927 16.4101C57.1927 20.8518 53.7035 24.1249 49.4215 24.1249C45.1395 24.1249 41.6504 20.8518 41.6504 16.4101C41.6504 11.9405 45.1395 8.69531 49.4215 8.69531C53.7035 8.69531 57.1927 11.9371 57.1927 16.4101ZM53.7908 16.4101C53.7908 13.6344 51.7686 11.7353 49.4215 11.7353C47.0745 11.7353 45.0522 13.6344 45.0522 16.4101C45.0522 19.1579 47.0745 21.0849 49.4215 21.0849C51.7686 21.0849 53.7908 19.1544 53.7908 16.4101Z" fill="#FBBC05"/>
<path d="M73.259 9.1614V23.0118C73.259 28.7092 69.8851 31.0362 65.8964 31.0362C62.1418 31.0362 59.8821 28.5353 59.0299 26.4901L61.9917 25.2623C62.5191 26.5179 63.8113 27.9997 65.893 27.9997C68.4461 27.9997 70.0283 26.431 70.0283 23.4779V22.3684H69.9095C69.1481 23.304 67.6812 24.1214 65.8301 24.1214C61.9567 24.1214 58.4082 20.7614 58.4082 16.4379C58.4082 12.0831 61.9567 8.69531 65.8301 8.69531C67.6777 8.69531 69.1446 9.5127 69.9095 10.4205H70.0283V9.16488H73.259V9.1614ZM70.2692 16.4379C70.2692 13.7214 68.4496 11.7353 66.1339 11.7353C63.7869 11.7353 61.8205 13.7214 61.8205 16.4379C61.8205 19.1266 63.7869 21.0849 66.1339 21.0849C68.4496 21.0849 70.2692 19.1266 70.2692 16.4379Z" fill="#4285F4"/>
<path d="M78.5836 1.04395V23.6526H75.2656V1.04395H78.5836Z" fill="#34A853"/>
<path d="M91.515 18.9498L94.1554 20.7028C93.3032 21.9585 91.2495 24.1219 87.701 24.1219C83.3003 24.1219 80.0137 20.7341 80.0137 16.4072C80.0137 11.8193 83.3282 8.69238 87.3203 8.69238C91.3403 8.69238 93.3067 11.8785 93.9493 13.6002L94.3021 14.4767L83.9464 18.748C84.7392 20.2959 85.9721 21.0854 87.701 21.0854C89.4333 21.0854 90.6348 20.2367 91.515 18.9498ZM83.3876 16.1741L90.31 13.3115C89.9293 12.348 88.7837 11.6767 87.4355 11.6767C85.7067 11.6767 83.3003 13.1967 83.3876 16.1741Z" fill="#EA4335"/>
<path d="M12.3248 14.4031V11.13H23.4C23.5083 11.7005 23.5642 12.3753 23.5642 13.1057C23.5642 15.5613 22.8901 18.5979 20.7176 20.7613C18.6046 22.9527 15.9048 24.1213 12.3283 24.1213C5.69926 24.1213 0.125 18.744 0.125 12.1422C0.125 5.54048 5.69926 0.163086 12.3283 0.163086C15.9956 0.163086 18.6081 1.59613 20.571 3.46396L18.2518 5.77352C16.8443 4.45874 14.9373 3.43613 12.3248 3.43613C7.48401 3.43613 3.69798 7.32135 3.69798 12.1422C3.69798 16.9631 7.48401 20.8483 12.3248 20.8483C15.4647 20.8483 17.2529 19.5927 18.3985 18.4518C19.3276 17.5266 19.9388 16.2048 20.1798 14.3996L12.3248 14.4031Z" fill="#4285F4"/>
</g>
<defs>
<clipPath id="clip0_1_248">
<rect width="95" height="32" fill="white"/>
</clipPath>
</defs>
</svg>
