<svg width="121" height="35" viewBox="0 0 121 35" fill="none" xmlns="http://www.w3.org/2000/svg">
<path fill-rule="evenodd" clip-rule="evenodd" d="M76.1997 10.3096L74.1997 6.92965L70.6497 8.61965L68.6497 5.22965L65.0997 6.92965L63.1097 3.52965L59.5597 5.22965L57.5597 1.83965L54.0097 3.53965L52.0197 0.139648L48.4597 1.83965L40.9297 26.3596L50.0797 29.1596C50.4244 28.0545 51.153 27.109 52.1339 26.4942C53.1148 25.8793 54.2833 25.6356 55.4282 25.8071C56.5731 25.9786 57.6189 26.554 58.3766 27.4293C59.1343 28.3045 59.554 29.422 59.5597 30.5796V30.6796C59.5797 31.1196 59.5297 31.5596 59.3997 31.9996L68.6997 34.8496L76.1997 10.3096Z" fill="#D61920"/>
<path fill-rule="evenodd" clip-rule="evenodd" d="M48.781 24.3395C48.5497 24.3012 48.3398 24.1813 48.1893 24.0015C48.0389 23.8217 47.9579 23.5939 47.961 23.3595V11.3595C47.9597 11.2278 47.9846 11.0972 48.0344 10.9752C48.0842 10.8533 48.1578 10.7425 48.2509 10.6494C48.3441 10.5563 48.4548 10.4827 48.5768 10.4329C48.6987 10.3831 48.8293 10.3582 48.961 10.3595H57.631C58.1419 10.3582 58.648 10.4575 59.1204 10.6518C59.5929 10.846 60.0225 11.1315 60.3846 11.4918C60.7468 11.8521 61.0344 12.2802 61.2311 12.7516C61.4278 13.2231 61.5297 13.7286 61.531 14.2395V23.3595C61.5308 23.5068 61.498 23.6522 61.435 23.7853C61.372 23.9184 61.2804 24.036 61.1667 24.1296C61.0531 24.2233 60.9201 24.2906 60.7773 24.3269C60.6346 24.3632 60.4856 24.3675 60.341 24.3395C60.1116 24.2991 59.904 24.1783 59.7555 23.9987C59.6071 23.8191 59.5275 23.5925 59.531 23.3595V14.2495C59.531 13.7456 59.3308 13.2623 58.9745 12.906C58.6182 12.5497 58.1349 12.3495 57.631 12.3495H55.741V23.3495C55.7418 23.4835 55.7157 23.6163 55.6641 23.7399C55.6126 23.8636 55.5367 23.9757 55.441 24.0695C55.3272 24.1824 55.1876 24.266 55.0343 24.313C54.881 24.36 54.7186 24.3691 54.561 24.3395C54.3297 24.3012 54.1198 24.1813 53.9693 24.0015C53.8189 23.8217 53.7379 23.5939 53.741 23.3595V12.3495H49.961V23.3495C49.962 23.4966 49.9304 23.6421 49.8687 23.7756C49.8069 23.9091 49.7165 24.0274 49.6038 24.1219C49.4911 24.2165 49.3589 24.285 49.2167 24.3226C49.0745 24.3602 48.9257 24.366 48.781 24.3395ZM63.201 29.5695C62.968 29.531 62.7567 29.4096 62.606 29.2277C62.4554 29.0458 62.3755 28.8156 62.381 28.5795C62.3821 28.3171 62.4863 28.0657 62.671 27.8795C62.8557 27.6911 63.1073 27.5832 63.371 27.5795C64.221 27.5795 64.951 27.0395 65.191 26.2295L66.221 22.7995L62.851 11.5295C62.8108 11.4034 62.796 11.2707 62.8075 11.1389C62.819 11.0071 62.8565 10.8789 62.9179 10.7617C62.9793 10.6445 63.0633 10.5406 63.1652 10.4561C63.267 10.3717 63.3845 10.3082 63.511 10.2695C63.7629 10.1997 64.032 10.2292 64.2627 10.352C64.4935 10.4748 64.6683 10.6815 64.751 10.9295L67.251 19.3295L69.791 10.9295C69.911 10.4695 70.421 10.1595 70.941 10.2595L71.011 10.2695C71.551 10.4395 71.851 11.0095 71.691 11.5395L68.221 23.0995L67.121 26.7995C66.8742 27.5958 66.3847 28.295 65.721 28.7995C65.046 29.3058 64.2249 29.5795 63.381 29.5795C63.3208 29.5818 63.2606 29.5785 63.201 29.5695Z" fill="#FEFEFE"/>
<path fill-rule="evenodd" clip-rule="evenodd" d="M2.0801 22.1494H4.0401C4.56258 22.1494 5.06365 21.9418 5.4331 21.5724C5.80255 21.2029 6.0101 20.7019 6.0101 20.1794V14.4094C6.01142 14.1507 5.96176 13.8942 5.86398 13.6547C5.76619 13.4152 5.62218 13.1973 5.44018 13.0134C5.25817 12.8296 5.04174 12.6834 4.80323 12.5832C4.56472 12.4829 4.3088 12.4307 4.0501 12.4294H2.0801V22.1294V22.1494ZM0.8501 24.2094C0.609987 24.1688 0.392309 24.0437 0.236414 23.8566C0.0805202 23.6695 -0.00330232 23.4329 9.96254e-05 23.1894V5.26938C-0.00166797 5.13228 0.0239572 4.9962 0.0754726 4.86913C0.126988 4.74206 0.203356 4.62655 0.3001 4.52938C0.417145 4.40785 0.562256 4.31693 0.722676 4.26462C0.883095 4.2123 1.05391 4.20021 1.2201 4.22938C1.7201 4.32938 2.0801 4.74938 2.0801 5.25938V10.3594H4.0401C4.57148 10.3581 5.0979 10.4616 5.58921 10.664C6.08052 10.8665 6.52707 11.1638 6.90328 11.5391C7.27949 11.9144 7.57797 12.3602 7.78162 12.851C7.98527 13.3418 8.0901 13.868 8.0901 14.3994V20.1694C8.08746 21.24 7.66097 22.2661 6.90389 23.0232C6.14682 23.7803 5.12076 24.2067 4.0501 24.2094H1.0401C0.973268 24.2133 0.906204 24.21 0.8401 24.1994L0.8501 24.2094Z" fill="#333545"/>
<path fill-rule="evenodd" clip-rule="evenodd" d="M15.14 12.3494C15.0277 12.3298 14.914 12.3198 14.8 12.3194C14.5406 12.3168 14.2832 12.3659 14.043 12.4639C13.8028 12.562 13.5845 12.707 13.4011 12.8905C13.2176 13.0739 13.0726 13.2922 12.9745 13.5324C12.8765 13.7726 12.8273 14.03 12.83 14.2894V20.2994C12.8287 20.5585 12.8787 20.8153 12.9773 21.0549C13.0758 21.2945 13.2209 21.5122 13.4041 21.6954C13.5873 21.8786 13.805 22.0236 14.0446 22.1222C14.2842 22.2207 14.5409 22.2708 14.8 22.2694C15.3225 22.2694 15.8236 22.0619 16.193 21.6924C16.5625 21.323 16.77 20.8219 16.77 20.2994V14.2994C16.77 13.3294 16.08 12.5194 15.14 12.3494ZM14.09 24.2994C13.1524 24.1345 12.3032 23.6437 11.6921 22.9137C11.0811 22.1838 10.7474 21.2614 10.75 20.3094V14.2994C10.7483 13.7675 10.8526 13.2406 11.0569 12.7496C11.2613 12.2585 11.5615 11.8131 11.94 11.4394C12.3155 11.064 12.7615 10.7665 13.2523 10.564C13.7431 10.3615 14.2691 10.258 14.8 10.2594C15.8715 10.2594 16.8991 10.6851 17.6567 11.4427C18.4144 12.2004 18.84 13.228 18.84 14.2994V20.3094C18.84 21.3894 18.42 22.4094 17.65 23.1794C17.2761 23.5541 16.8318 23.8512 16.3427 24.0537C15.8536 24.2562 15.3294 24.3601 14.8 24.3594C14.562 24.3604 14.3245 24.3403 14.09 24.2994ZM25.89 12.3594C25.7778 12.3398 25.664 12.3297 25.55 12.3294C25.2906 12.3268 25.0332 12.3759 24.793 12.4739C24.5528 12.572 24.3345 12.717 24.1511 12.9005C23.9676 13.0839 23.8226 13.3022 23.7245 13.5424C23.6265 13.7826 23.5773 14.04 23.58 14.2994V20.3094C23.5787 20.5685 23.6287 20.8253 23.7273 21.0649C23.8258 21.3045 23.9709 21.5222 24.1541 21.7054C24.3373 21.8886 24.555 22.0336 24.7946 22.1322C25.0342 22.2307 25.2909 22.2808 25.55 22.2794C25.8091 22.2808 26.0659 22.2307 26.3055 22.1322C26.5451 22.0336 26.7628 21.8886 26.946 21.7054C27.1292 21.5222 27.2742 21.3045 27.3728 21.0649C27.4713 20.8253 27.5213 20.5685 27.52 20.3094V14.2994C27.52 13.3394 26.83 12.5294 25.89 12.3594ZM24.84 24.2994C23.9043 24.1324 23.0574 23.6407 22.4483 22.9109C21.8392 22.1812 21.507 21.26 21.51 20.3094V14.2994C21.5116 13.7101 21.6418 13.1282 21.8915 12.5943C22.1412 12.0605 22.5043 11.5876 22.9557 11.2086C23.407 10.8296 23.9357 10.5537 24.5046 10.4001C25.0736 10.2466 25.6693 10.219 26.25 10.3194C27.1878 10.482 28.038 10.9704 28.6509 11.6985C29.2637 12.4266 29.5999 13.3477 29.6 14.2994V20.3094C29.6012 20.8436 29.4957 21.3727 29.2897 21.8655C29.0836 22.3584 28.7811 22.8051 28.4 23.1794C28.0261 23.5541 27.5818 23.8512 27.0927 24.0537C26.6036 24.2562 26.0794 24.3601 25.55 24.3594C25.31 24.3594 25.07 24.3394 24.84 24.2994ZM33.11 24.3394C32.8699 24.2989 32.6522 24.1737 32.4963 23.9867C32.3404 23.7996 32.2566 23.5629 32.26 23.3194V5.26943C32.26 4.98943 32.36 4.71943 32.56 4.52943C32.678 4.41298 32.8223 4.32672 32.9807 4.27797C33.1392 4.22922 33.307 4.21943 33.47 4.24943C33.97 4.32943 34.34 4.75943 34.34 5.26943V15.9494L39.12 10.5894C39.36 10.3294 39.72 10.2094 40.08 10.2694C40.2615 10.2998 40.4316 10.3782 40.5725 10.4966C40.7134 10.615 40.8201 10.769 40.8813 10.9425C40.9426 11.116 40.9562 11.3028 40.9208 11.4834C40.8854 11.664 40.8023 11.8318 40.68 11.9694L37.07 15.9994L40.8 22.8294C40.8672 22.9446 40.9106 23.0721 40.9278 23.2043C40.945 23.3366 40.9355 23.4709 40.9 23.5994C40.8614 23.7319 40.7962 23.8551 40.7086 23.9617C40.6209 24.0683 40.5125 24.156 40.39 24.2194C40.1783 24.3411 39.9302 24.3837 39.69 24.3394C39.5406 24.3142 39.3986 24.2563 39.2742 24.1698C39.1497 24.0834 39.0459 23.9706 38.97 23.8394L35.61 17.6594L34.33 19.0694V23.3194C34.33 23.5953 34.2204 23.8598 34.0254 24.0548C33.8304 24.2499 33.5658 24.3594 33.29 24.3594C33.22 24.3594 33.16 24.3594 33.09 24.3394H33.11ZM78.92 24.3294C78.3577 24.2352 77.8234 24.0167 77.3563 23.6897C76.8892 23.3627 76.501 22.9356 76.22 22.4394C76.0826 22.1963 76.0467 21.9089 76.12 21.6394C76.2 21.3794 76.37 21.1594 76.6 21.0194C76.8136 20.9028 77.061 20.8639 77.3 20.9094C77.6 20.9594 77.87 21.1394 78.02 21.4094C78.29 21.8694 78.72 22.1694 79.25 22.2594C79.5233 22.3069 79.8037 22.292 80.0704 22.2158C80.3371 22.1396 80.5831 22.0041 80.79 21.8194C81.19 21.4494 81.39 20.9194 81.34 20.3994C81.3289 20.1329 81.2552 19.8727 81.1249 19.6399C80.9947 19.4071 80.8114 19.2083 80.59 19.0594L77.79 17.0694C77.3338 16.7491 76.9539 16.3321 76.6774 15.8481C76.4008 15.3641 76.2344 14.8251 76.19 14.2694C76.1538 13.7088 76.2458 13.1473 76.4589 12.6275C76.672 12.1077 77.0007 11.6433 77.42 11.2694C77.8291 10.8891 78.3178 10.6047 78.8506 10.437C79.3834 10.2692 79.9468 10.2222 80.5 10.2994C81.68 10.4994 82.64 11.1794 83.19 12.1394C83.3225 12.3793 83.357 12.6612 83.2861 12.926C83.2153 13.1908 83.0446 13.4178 82.81 13.5594C82.5983 13.6812 82.3502 13.7237 82.11 13.6794C81.9606 13.6542 81.8186 13.5963 81.6942 13.5098C81.5697 13.4234 81.4659 13.3106 81.39 13.1794C81.2646 12.9673 81.0937 12.7855 80.8897 12.6472C80.6857 12.5089 80.4536 12.4174 80.21 12.3794C79.9609 12.3343 79.7046 12.3479 79.4616 12.4191C79.2186 12.4902 78.9955 12.617 78.81 12.7894C78.6289 12.9603 78.4876 13.1689 78.396 13.4005C78.3044 13.632 78.2648 13.8809 78.28 14.1294C78.3 14.6194 78.58 15.0994 79 15.3794L81.8 17.3294C82.2753 17.6622 82.6684 18.0992 82.9491 18.6069C83.2299 19.1147 83.3909 19.6799 83.42 20.2594C83.4663 20.8362 83.3775 21.4158 83.1605 21.9523C82.9435 22.4887 82.6043 22.9671 82.17 23.3494C81.7476 23.7419 81.243 24.0354 80.6929 24.2083C80.1428 24.3813 79.5611 24.4295 78.99 24.3494L78.91 24.3294H78.92ZM86.95 24.3594C86.7098 24.3172 86.4921 24.1919 86.3349 24.0055C86.1777 23.8191 86.091 23.5833 86.09 23.3394V5.28943C86.0887 5.15248 86.1147 5.01664 86.1665 4.88986C86.2183 4.76308 86.2948 4.6479 86.3917 4.55106C86.4885 4.45422 86.6037 4.37766 86.7305 4.32587C86.8572 4.27408 86.9931 4.24809 87.13 4.24943L87.33 4.25943C87.83 4.35943 88.17 4.76943 88.17 5.28943V10.3894H90.14C90.6709 10.3881 91.1969 10.4917 91.6876 10.6943C92.1784 10.8968 92.6243 11.1944 92.9997 11.5698C93.3751 11.9452 93.6726 12.3911 93.8752 12.8818C94.0777 13.3726 94.1813 13.8985 94.18 14.4294V23.3294C94.1809 23.4804 94.1485 23.6298 94.0853 23.7669C94.022 23.904 93.9294 24.0255 93.8139 24.1228C93.6985 24.2201 93.563 24.2909 93.4172 24.33C93.2714 24.3692 93.1187 24.3758 92.97 24.3494C92.47 24.2594 92.11 23.8294 92.11 23.3194V14.4194C92.11 14.1612 92.059 13.9055 91.9599 13.667C91.8608 13.4286 91.7155 13.2121 91.5324 13.0299C91.3494 12.8478 91.1321 12.7037 90.8932 12.6057C90.6542 12.5078 90.3983 12.4581 90.14 12.4594H88.17V23.3294C88.1712 23.4814 88.1386 23.6318 88.0748 23.7698C88.0109 23.9077 87.9173 24.0298 87.8007 24.1273C87.6841 24.2248 87.5473 24.2953 87.4003 24.3337C87.2532 24.3721 87.0994 24.3775 86.95 24.3494V24.3594ZM101.23 12.3694C100.947 12.318 100.655 12.3296 100.377 12.4035C100.099 12.4774 99.84 12.6118 99.6195 12.797C99.3989 12.9822 99.2219 13.2138 99.101 13.4752C98.9801 13.7366 98.9183 14.0214 98.92 14.3094V20.3194C98.9187 20.5777 98.9684 20.8336 99.0663 21.0726C99.1642 21.3115 99.3084 21.5288 99.4905 21.7118C99.6727 21.8949 99.8892 22.0402 100.128 22.1393C100.366 22.2384 100.622 22.2894 100.88 22.2894C101.4 22.2894 101.9 22.0894 102.27 21.7194C102.455 21.5366 102.602 21.3185 102.702 21.0781C102.801 20.8376 102.852 20.5797 102.85 20.3194V14.2994C102.85 13.3394 102.17 12.5194 101.22 12.3594L101.23 12.3694ZM100.17 24.2894C99.2351 24.1245 98.3884 23.6349 97.7792 22.9067C97.17 22.1786 96.8374 21.2588 96.84 20.3094V14.2994C96.8401 13.7092 96.9692 13.1262 97.2183 12.5911C97.4674 12.0561 97.8304 11.5819 98.2819 11.2018C98.7334 10.8217 99.2625 10.5449 99.8322 10.3908C100.402 10.2366 100.998 10.2089 101.58 10.3094C102.519 10.4723 103.371 10.9621 103.984 11.6923C104.597 12.4225 104.932 13.346 104.93 14.2994V20.3094C104.93 20.842 104.825 21.3693 104.619 21.8605C104.412 22.3516 104.11 22.7966 103.73 23.1694C103.271 23.63 102.708 23.9725 102.088 24.1676C101.468 24.3626 100.81 24.4045 100.17 24.2894Z" fill="#333545"/>
<path fill-rule="evenodd" clip-rule="evenodd" d="M120.901 11.5393C120.935 11.4123 120.943 11.2797 120.926 11.1493C120.909 11.0189 120.866 10.8932 120.801 10.7793C120.725 10.6579 120.626 10.5529 120.509 10.4705C120.392 10.388 120.26 10.3298 120.121 10.2993C119.863 10.2506 119.596 10.3021 119.375 10.4433C119.154 10.5845 118.995 10.8049 118.931 11.0593C118.931 11.1093 117.811 15.6193 116.931 19.0493L116.911 19.1193L116.891 19.0493L114.891 11.0693C114.852 10.8745 114.755 10.6962 114.612 10.5585C114.469 10.4208 114.287 10.3303 114.091 10.2993C114.031 10.2876 113.971 10.2809 113.911 10.2793C113.451 10.2793 113.051 10.5993 112.921 11.0593C112.911 11.1093 111.791 15.6193 110.921 19.0493L110.901 19.1193L110.881 19.0493C110.031 15.6193 108.881 11.1093 108.881 11.0593C108.833 10.8679 108.732 10.6943 108.588 10.5594C108.444 10.4245 108.265 10.3342 108.071 10.2993C107.904 10.2699 107.733 10.2823 107.572 10.3354C107.412 10.3885 107.267 10.4807 107.151 10.6037C107.035 10.7267 106.951 10.8766 106.908 11.0399C106.864 11.2032 106.862 11.3748 106.901 11.5393L109.911 23.5693C109.968 23.7898 110.095 23.9854 110.274 24.1263C110.453 24.2672 110.673 24.3456 110.901 24.3493C111.391 24.3493 111.781 24.0293 111.881 23.5693L113.881 15.5793L113.911 15.5093L113.931 15.5793C114.811 19.0493 115.931 23.5793 115.931 23.5793C115.99 23.7955 116.118 23.9869 116.294 24.1254C116.47 24.264 116.686 24.3424 116.911 24.3493C117.141 24.3565 117.367 24.2822 117.548 24.1396C117.729 23.9969 117.854 23.795 117.901 23.5693L120.901 11.5393Z" fill="#333545"/>
</svg>
