<svg width="84" height="30" viewBox="0 0 84 30" fill="none" xmlns="http://www.w3.org/2000/svg">
<path d="M69.0639 29.6404C77.0423 29.6404 83.534 23.0436 83.534 14.9364C83.534 6.82442 77.0423 0.232422 69.0639 0.232422C61.0839 0.232422 54.5937 6.82442 54.5937 14.9364C54.5937 23.0436 61.0839 29.6404 69.0639 29.6404ZM69.0639 9.69322C71.9072 9.69322 74.2227 12.0452 74.2227 14.9348C74.2227 17.8244 71.9056 20.1732 69.0623 20.1732C66.2174 20.1732 63.905 17.8244 63.905 14.9332C63.905 12.0404 66.2189 9.69002 69.0623 9.69002L69.0639 9.69322ZM14.4702 29.6404C22.4486 29.6404 28.9404 23.0436 28.9404 14.9364C28.9404 6.82442 22.4486 0.232422 14.4702 0.232422C6.49336 0.232422 0 6.82442 0 14.9364C0 23.0436 6.49336 29.6404 14.4702 29.6404ZM14.4702 9.69322C17.3151 9.69322 19.6291 12.0452 19.6291 14.9348C19.6291 17.8244 17.3151 20.1732 14.4702 20.1732C11.6269 20.1732 9.31449 17.8244 9.31449 14.9332C9.31449 12.0404 11.6285 9.69002 14.4702 9.69002V9.69322ZM41.7591 9.36202L37.3166 0.424422H26.9149L36.6303 19.9764V29.1812H46.8894V19.9764L56.6049 0.424422H46.1984L41.7607 9.36202H41.7591Z" fill="#EE2E24"/>
</svg>
