<svg width="32" height="32" viewBox="0 0 32 32" fill="none" xmlns="http://www.w3.org/2000/svg">
<path d="M30.6673 8.00016V2.66683C30.6673 2.31321 30.5268 1.97407 30.2768 1.72402C30.0267 1.47397 29.6876 1.3335 29.334 1.3335H2.66732C2.3137 1.3335 1.97456 1.47397 1.72451 1.72402C1.47446 1.97407 1.33398 2.31321 1.33398 2.66683V8.00016H30.6673Z" fill="#2EC5CE"/>
<path d="M1.33398 10.667V29.3337C1.33398 29.6873 1.47446 30.0264 1.72451 30.2765C1.97456 30.5265 2.3137 30.667 2.66732 30.667H9.33398V10.667H1.33398Z" fill="#D6B1FF"/>
<path d="M12 30.667H29.3333C29.687 30.667 30.0261 30.5265 30.2761 30.2765C30.5262 30.0264 30.6667 29.6873 30.6667 29.3337V10.667H12V30.667Z" fill="#8C30F5"/>
</svg>
