<svg width="122" height="26" viewBox="0 0 122 26" fill="none" xmlns="http://www.w3.org/2000/svg">
<g clip-path="url(#clip0_1_267)">
<path d="M43.0641 14.9748L42.337 17.0306H42.2764C42.1552 16.5671 41.933 15.8616 41.5694 15.0151L37.6711 5.23993H33.8535V20.8198H36.3783V11.2058C36.3783 10.6012 36.3783 9.9159 36.3581 9.06939C36.338 8.64613 36.2976 8.32365 36.2774 8.08179H36.3379C36.4591 8.68644 36.6005 9.12985 36.7015 9.41202L41.3876 20.7795H43.1651L47.8108 9.31125C47.9118 9.04923 48.0128 8.5252 48.1138 8.08179H48.1744C48.1138 9.23063 48.0734 10.2585 48.0532 10.8833V20.7593H50.7396V5.19962H47.0634L43.0641 14.9748ZM53.2846 9.59342H55.9105V20.7593H53.2846V9.59342ZM54.6177 4.87714C54.1734 4.87714 53.8098 5.03838 53.5068 5.32055C53.2038 5.60272 53.0423 5.96551 53.0423 6.40892C53.0423 6.83218 53.2038 7.19497 53.5068 7.47714C53.8098 7.75931 54.1734 7.90039 54.6177 7.90039C55.0621 7.90039 55.4459 7.73915 55.7287 7.47714C56.0317 7.19497 56.1932 6.83218 56.1932 6.40892C56.1932 5.98566 56.0317 5.62287 55.7287 5.32055C55.4661 5.03838 55.0823 4.87714 54.6177 4.87714ZM65.2221 9.49264C64.7373 9.39187 64.2323 9.3314 63.7476 9.3314C62.5558 9.3314 61.4651 9.59342 60.5562 10.1174C59.6472 10.6415 58.9201 11.3671 58.4555 12.274C57.9707 13.2012 57.7283 14.2694 57.7283 15.4988C57.7283 16.5671 57.9707 17.5143 58.4353 18.381C58.8999 19.2275 59.5462 19.9128 60.4148 20.3764C61.2429 20.8399 62.2125 21.0818 63.3032 21.0818C64.5555 21.0818 65.626 20.8198 66.4744 20.3361L66.4946 20.3159V17.8973L66.3936 17.9779C66.0098 18.2601 65.5654 18.5019 65.1211 18.643C64.6565 18.8043 64.2323 18.8849 63.8687 18.8849C62.8184 18.8849 61.9903 18.5826 61.4045 17.9174C60.7985 17.2725 60.4956 16.3857 60.4956 15.2771C60.4956 14.1283 60.7985 13.2213 61.4247 12.5562C62.0509 11.8911 62.879 11.5485 63.8889 11.5485C64.7373 11.5485 65.6058 11.8306 66.3936 12.395L66.4946 12.4756V9.9159L66.4744 9.89574C66.131 9.75466 65.7472 9.59342 65.2221 9.49264ZM73.8873 9.41202C73.2409 9.41202 72.635 9.61357 72.1098 10.0368C71.6654 10.3996 71.3624 10.9236 71.0999 11.5485H71.0797V9.59342H68.4538V20.7593H71.0797V15.0554C71.0797 14.088 71.2817 13.2818 71.726 12.6973C72.1704 12.0926 72.736 11.7903 73.4227 11.7903C73.6651 11.7903 73.9075 11.8508 74.2105 11.8911C74.4932 11.9717 74.6952 12.0523 74.8366 12.1531L74.9376 12.2337V9.61357L74.877 9.59342C74.6952 9.47249 74.3317 9.41202 73.8873 9.41202ZM81.0376 9.35156C79.1995 9.35156 77.725 9.89574 76.6949 10.964C75.6446 12.0322 75.1396 13.5035 75.1396 15.3578C75.1396 17.0911 75.6648 18.5019 76.6747 19.5299C77.6846 20.5376 79.0581 21.0616 80.775 21.0616C82.5727 21.0616 84.0068 20.5174 85.037 19.4291C86.0873 18.3407 86.5923 16.8895 86.5923 15.0957C86.5923 13.3221 86.1075 11.9112 85.1177 10.8833C84.1684 9.85543 82.7747 9.35156 81.0376 9.35156ZM83.1383 17.9376C82.6535 18.5624 81.886 18.8647 80.9366 18.8647C79.9873 18.8647 79.2197 18.5624 78.6744 17.8973C78.129 17.2725 77.8664 16.3655 77.8664 15.2167C77.8664 14.0275 78.1492 13.1205 78.6744 12.4756C79.2197 11.8306 79.9671 11.5081 80.9164 11.5081C81.8456 11.5081 82.5727 11.8105 83.0979 12.4353C83.623 13.0601 83.9058 13.9671 83.9058 15.1562C83.8654 16.3655 83.6432 17.3128 83.1383 17.9376ZM92.4499 14.2291C91.6217 13.8864 91.0965 13.6244 90.8542 13.4027C90.6522 13.2012 90.5512 12.919 90.5512 12.5562C90.5512 12.2539 90.6724 11.9516 90.9754 11.75C91.2783 11.5485 91.6217 11.4477 92.1267 11.4477C92.5711 11.4477 93.0356 11.5283 93.48 11.6492C93.9244 11.7702 94.3283 11.9516 94.6515 12.1934L94.7525 12.274V9.81512L94.6919 9.79497C94.3889 9.67404 93.985 9.55311 93.5002 9.45233C93.0154 9.37171 92.5711 9.3314 92.2075 9.3314C90.9552 9.3314 89.925 9.63373 89.1171 10.2988C88.3091 10.9236 87.9254 11.7702 87.9254 12.7578C87.9254 13.2818 88.0062 13.7454 88.1879 14.1283C88.3697 14.5112 88.6323 14.874 88.9959 15.1764C89.3595 15.4585 89.8846 15.781 90.6118 16.0833C91.2177 16.3454 91.6823 16.5469 91.9651 16.7081C92.2479 16.8694 92.4297 17.0508 92.5711 17.1919C92.672 17.3531 92.7326 17.5547 92.7326 17.8167C92.7326 18.5624 92.1671 18.9252 91.0158 18.9252C90.5714 18.9252 90.1068 18.8446 89.5615 18.6632C89.0161 18.4818 88.5111 18.2198 88.087 17.9174L87.986 17.8368V20.3965L88.0466 20.4167C88.4303 20.5981 88.8949 20.719 89.4605 20.8601C90.026 20.9609 90.531 21.0415 90.9754 21.0415C92.3287 21.0415 93.4396 20.7392 94.2273 20.074C95.0353 19.4291 95.4595 18.6027 95.4595 17.5345C95.4595 16.7888 95.2575 16.1237 94.8131 15.6198C94.2273 15.1361 93.5002 14.6322 92.4499 14.2291ZM102.388 9.35156C100.55 9.35156 99.075 9.89574 98.0449 10.964C97.0148 12.0322 96.4896 13.5035 96.4896 15.3578C96.4896 17.0911 97.0148 18.5019 98.0247 19.5299C99.0346 20.5376 100.408 21.0616 102.125 21.0616C103.923 21.0616 105.357 20.5174 106.387 19.4291C107.437 18.3407 107.942 16.8895 107.942 15.0957C107.942 13.3221 107.457 11.9112 106.468 10.8833C105.518 9.85543 104.125 9.35156 102.388 9.35156ZM104.468 17.9376C103.983 18.5624 103.216 18.8647 102.266 18.8647C101.297 18.8647 100.55 18.5624 100.004 17.8973C99.4588 17.2725 99.1962 16.3655 99.1962 15.2167C99.1962 14.0275 99.479 13.1205 100.004 12.4756C100.55 11.8306 101.297 11.5081 102.246 11.5081C103.155 11.5081 103.903 11.8105 104.428 12.4353C104.953 13.0601 105.236 13.9671 105.236 15.1562C105.236 16.3655 104.973 17.3128 104.468 17.9376ZM121.98 11.75V9.59342H119.334V6.28799L119.254 6.30815L116.749 7.05388L116.688 7.07404V9.59342H112.729V8.18256C112.729 7.5376 112.891 7.03373 113.174 6.71125C113.456 6.38877 113.881 6.22753 114.406 6.22753C114.769 6.22753 115.153 6.30815 115.577 6.48954L115.678 6.55001V4.27249L115.618 4.25233C115.254 4.1314 114.769 4.05078 114.143 4.05078C113.355 4.05078 112.669 4.23218 112.043 4.5345C111.416 4.87714 110.952 5.3407 110.608 5.96551C110.265 6.57016 110.083 7.25543 110.083 8.04148V9.59342H108.245V11.7299H110.083V20.7593H112.729V11.75H116.688V17.4942C116.688 19.8523 117.799 21.0415 120.021 21.0415C120.385 21.0415 120.768 20.981 121.132 20.9205C121.516 20.8399 121.799 20.7392 121.96 20.6585L121.98 20.6384V18.4818L121.879 18.5624C121.718 18.6632 121.576 18.7438 121.334 18.8043C121.132 18.8647 120.95 18.8849 120.809 18.8849C120.284 18.8849 119.92 18.764 119.657 18.4616C119.415 18.1795 119.294 17.7159 119.294 17.0306V11.75H121.98Z" fill="#737373"/>
<path d="M0 0H12.3818V12.355H0V0Z" fill="#F25022"/>
<path d="M13.6738 0H26.0556V12.355H13.6738V0Z" fill="#7FBA00"/>
<path d="M0 13.6445H12.3818V25.9996H0V13.6445Z" fill="#00A4EF"/>
<path d="M13.6738 13.6445H26.0556V25.9996H13.6738V13.6445Z" fill="#FFB900"/>
</g>
<defs>
<clipPath id="clip0_1_267">
<rect width="122" height="26" fill="white"/>
</clipPath>
</defs>
</svg>
